<svg xmlns="http://www.w3.org/2000/svg" width="128" height="140" fill="none" viewBox="0 0 128 140">
    <path fill="#fff" fill-rule="evenodd" d="M59.696 15.477L67.552 0l7.856 15.477c2.957 5.825.991 12.943-4.537 16.424l-3.319 2.091-3.32-2.09c-5.526-3.482-7.492-10.6-4.536-16.425zm9.71 24.605V38.08c10.587 0 20.274 5.947 25.065 15.386l2.99 5.89h-8.78c-10.645 0-19.274-8.63-19.274-19.275zm-3.709 21.194h-2.329c-15.781 0-30.224 8.866-37.368 22.94h12.593c9.485 0 18.166-5.33 22.458-13.787l4.646-9.153zm3.71 0h2.329c15.781 0 30.225 8.866 37.368 22.94H96.512c-9.486 0-18.166-5.33-22.459-13.787l-4.646-9.153zm-3.71-23.195v2c0 10.646-8.629 19.275-19.274 19.275h-8.779l2.99-5.89c4.79-9.438 14.478-15.385 25.063-15.385zM12.836 109L0 138.851h3.881l3.582-8.358h13.135l3.582 8.358h4.08L15.423 109h-2.587zm1.194 5.97l5.224 12.289H8.806l5.224-12.289zm30.742 2.388l-6.916 16.12-6.965-16.12h-3.88l9.452 21.543h2.538l9.453-21.543h-3.682zm11.289-4.229H52.28V109h3.78v4.129zm-3.781 25.722h3.78v-21.493h-3.78v21.493zm13.876 0l.148-3.88c1.791 2.736 4.926 4.478 8.459 4.478 5.92 0 10.249-5.075 10.249-11.344 0-6.27-4.33-11.344-10.25-11.344-3.333 0-6.318 1.543-8.11 3.98V109h-3.78v29.851h3.284zm15.074-10.746c0-5.174-3.333-8.309-7.413-8.309s-7.413 3.135-7.413 8.309c0 5.174 3.334 8.308 7.413 8.308 4.08 0 7.413-3.134 7.413-8.308zm12.632-10.747h-3.284v21.493h3.782v-12.786c0-3.632 4.03-5.97 8.109-5.224v-4.08c-3.632 0-6.965 2.09-8.358 4.727l-.25-4.13zm11.785 10.747c0-6.27 4.329-11.344 10.25-11.344 3.532 0 6.666 1.741 8.457 4.478l.15-3.881h3.283v21.493h-3.283l-.15-3.88c-1.791 2.736-4.925 4.478-8.457 4.478-5.921 0-10.25-5.075-10.25-11.344zm11.194-8.309c4.081 0 7.414 3.135 7.414 8.309 0 5.174-3.333 8.308-7.414 8.308-4.079 0-7.412-3.134-7.412-8.308 0-5.174 3.333-8.309 7.412-8.309z" clip-rule="evenodd" />
</svg>